:SAMPLES-PER-SECOND 30
:FULLY-SPECIFIED
:DEGREES
110
root  -2.65436 40.9377 0.752547 -178.391 -89.1209 177.644
RightUpLeg  4.59745 -1.50648 -1.49453
RightLeg  -1.6402 -18.6784 0.44612
RightFoot  -0.802939 -0.273086 2.85523
RightToes  -3.13006e-008 1.75238e-005 3.56266e-009
Spine  -5.70109 -2.18096 -5.18182
Spine1  12.9831 -3.54212 5.52518
HEad  -20.7663 0.880802 3.42571
LeftShoulder1  2.85758 -5.23612 -26.5905
LeftArm  -30.0319 6.96646 -52.2352
LeftForeArm  -178.622 -66.6006 -158.679
LeftHand  -1.27795 -7.89175 11.4896
RightShoulder  2.51633 4.54282 25.2124
RightArm  1.38554 -34.4199 40.0885
RightForeArm  110.277 77.4555 122.35
RightHand  -0.499321 7.32708 -4.90615
LeftUpLeg  3.96308 1.03099 1.96194
LeftLeg  -1.68035 13.1497 -0.575504
LeftFoot  -0.894012 0.245075 -2.62786
LeftToes  4.76866e-008 1.46233e-008 1.30548e-009
111
root  -2.67317 40.937 0.758125 -179.178 -88.944 178.491
RightUpLeg  4.58689 -1.46783 -1.48
RightLeg  -1.75546 -18.5838 0.452291
RightFoot  -0.741388 -0.269867 2.81267
RightToes  -3.13006e-008 1.75238e-005 3.56266e-009
Spine  -5.94012 -2.153 -4.90284
Spine1  13.2144 -3.38584 5.00755
HEad  -20.5707 0.686158 3.03344
LeftShoulder1  2.90187 -5.3302 -26.7464
LeftArm  -27.9963 6.21822 -53.353
LeftForeArm  -178.491 -66.6388 -158.655
LeftHand  -1.27801 -7.55612 11.7738
RightShoulder  2.57271 4.64352 25.533
RightArm  1.14129 -33.8046 40.7007
RightForeArm  109.614 77.5771 121.499
RightHand  -0.469224 7.22286 -4.66665
LeftUpLeg  3.94406 1.0647 1.97128
LeftLeg  -1.6697 13.2929 -0.61045
LeftFoot  -0.913845 0.246072 -2.64037
LeftToes  4.76866e-008 1.46233e-008 1.30548e-009
112
root  -2.69104 40.9363 0.76758 179.223 -88.5531 -179.83
RightUpLeg  4.50552 -1.44335 -1.47757
RightLeg  -1.80736 -18.2101 0.474281
RightFoot  -0.708979 -0.269503 2.81333
RightToes  -3.13006e-008 1.75238e-005 3.56266e-009
Spine  -6.08807 -2.01581 -4.77157
Spine1  13.3154 -3.22518 4.91542
HEad  -20.4885 0.496377 2.53441
LeftShoulder1  2.9676 -5.4402 -27.0914
LeftArm  -26.2079 6.33194 -54.132
LeftForeArm  -178.482 -66.6865 -158.609
LeftHand  -1.2575 -7.48577 11.6481
RightShoulder  2.57097 4.63083 25.5621
RightArm  1.44253 -33.7976 40.96
RightForeArm  110.952 77.3223 123.243
RightHand  -0.502941 7.23208 -4.97306
LeftUpLeg  3.93189 1.16989 2.03475
LeftLeg  -1.65234 13.5811 -0.706128
LeftFoot  -1.01489 0.245414 -2.6301
LeftToes  4.76866e-008 1.46233e-008 1.30548e-009
113
root  -2.71317 40.9355 0.771472 175.771 -88.2032 -176.353
RightUpLeg  4.61016 -1.3412 -1.35675
RightLeg  -2.10143 -17.9973 0.558323
RightFoot  -0.625797 -0.261182 2.68954
RightToes  -3.13006e-008 1.75238e-005 3.56266e-009
Spine  -6.3446 -1.99598 -4.51766
Spine1  13.7789 -3.18399 4.68494
HEad  -20.8599 0.460091 2.14171
LeftShoulder1  2.91829 -5.29042 -27.0939
LeftArm  -25.0204 6.88753 -54.5423
LeftForeArm  -178.684 -66.5374 -158.733
LeftHand  -1.17439 -7.20851 11.1381
RightShoulder  2.56949 4.58243 25.7411
RightArm  1.21403 -33.5032 41.5745
RightForeArm  111.596 77.315 123.455
RightHand  -0.45909 7.32939 -4.54049
LeftUpLeg  3.94463 1.16767 2.09271
LeftLeg  -1.5631 13.9012 -0.591101
LeftFoot  -1.0932 0.252996 -2.75134
LeftToes  4.76866e-008 1.46233e-008 1.30548e-009
114
root  -2.72772 40.9347 0.779593 175.44 -87.7499 -175.944
RightUpLeg  4.44716 -1.27662 -1.32535
RightLeg  -2.00967 -17.635 0.497474
RightFoot  -0.609971 -0.263461 2.72926
RightToes  -3.13006e-008 1.75238e-005 3.56266e-009
Spine  -6.69694 -1.9723 -4.39618
Spine1  14.284 -3.1499 4.57525
HEad  -21.6107 1.61756 1.90526
LeftShoulder1  2.98778 -5.48066 -27.1684
LeftArm  -24.1773 8.01482 -54.1333
LeftForeArm  -179.417 -66.4566 -158.733
LeftHand  -1.23902 -7.32953 11.6206
RightShoulder  2.61721 4.64904 26.08
RightArm  1.40202 -32.9682 41.7013
RightForeArm  111.14 77.2983 123.417
RightHand  -0.471939 7.30162 -4.66599
LeftUpLeg  3.94241 1.22641 2.13555
LeftLeg  -1.55889 14.265 -0.640096
LeftFoot  -1.12569 0.252559 -2.76306
LeftToes  4.76866e-008 1.46233e-008 1.30548e-009
115
root  -2.74731 40.9335 0.785328 174.896 -87.3738 -175.441
RightUpLeg  4.46875 -1.23192 -1.27867
RightLeg  -1.98736 -17.3191 0.469261
RightFoot  -0.605712 -0.266785 2.78432
RightToes  -3.13006e-008 1.75238e-005 3.56266e-009
Spine  -6.89327 -1.96868 -4.20408
Spine1  14.6332 -3.11047 4.36461
HEad  -21.4019 2.07802 1.71819
LeftShoulder1  2.88258 -5.2348 -26.89
LeftArm  -22.7444 9.25353 -53.9608
LeftForeArm  178.587 -66.666 -158.308
LeftHand  -1.25394 -7.46309 11.6369
RightShoulder  2.70535 4.79768 26.5877
RightArm  1.36784 -32.2928 41.6845
RightForeArm  110.003 77.436 122.378
RightHand  -0.47583 7.36599 -4.67947
LeftUpLeg  4.08403 1.27252 2.17034
LeftLeg  -1.60008 14.6181 -0.649016
LeftFoot  -1.18223 0.244129 -2.66452
LeftToes  4.76866e-008 1.46233e-008 1.30548e-009
116
root  -2.79898 40.9308 0.781946 170.201 -87.0656 -171.043
RightUpLeg  5.06017 -1.06601 -1.0041
RightLeg  -2.43785 -17.2311 0.563933
RightFoot  -0.475302 -0.260221 2.68513
RightToes  -3.13006e-008 1.75238e-005 3.56266e-009
Spine  -7.16107 -1.99247 -3.97156
Spine1  15.2831 -3.16934 4.26922
HEad  -21.3179 1.78226 1.54689
LeftShoulder1  2.78747 -5.028 -26.563
LeftArm  -21.6025 9.39154 -53.66
LeftForeArm  175.165 -67.3464 -157.231
LeftHand  -1.10608 -7.17154 10.5449
RightShoulder  2.77291 4.9578 26.7762
RightArm  1.2686 -30.8243 41.8346
RightForeArm  107.205 77.6088 120.625
RightHand  -0.427285 7.28658 -4.26347
LeftUpLeg  4.4136 1.51101 2.44959
LeftLeg  -1.31613 14.6096 -0.56856
LeftFoot  -1.46742 0.247714 -2.75946
LeftToes  4.76866e-008 1.46233e-008 1.30548e-009
117
root  -2.75916 40.928 0.771346 175.918 -86.347 -176.51
RightUpLeg  4.26096 -1.01843 -1.16194
RightLeg  -1.65477 -16.5373 0.176134
RightFoot  -0.692971 -0.266992 2.79211
RightToes  -3.13006e-008 1.75238e-005 3.56266e-009
Spine  -7.52836 -1.8471 -4.44486
Spine1  15.4107 -3.06332 4.65168
HEad  -20.8 2.01151 1.38387
LeftShoulder1  2.71591 -4.8776 -26.2859
LeftArm  -20.5512 8.96962 -52.9001
LeftForeArm  171.222 -68.3632 -155.607
LeftHand  -0.930932 -6.73514 9.22792
RightShoulder  2.87172 5.2156 26.9405
RightArm  1.2547 -28.4481 41.6396
RightForeArm  106.428 77.737 119.655
RightHand  -0.469341 7.2875 -4.64698
LeftUpLeg  4.28235 1.41572 2.24145
LeftLeg  -1.56019 15.468 -0.743646
LeftFoot  -1.34244 0.24659 -2.78059
LeftToes  4.76866e-008 1.46233e-008 1.30548e-009
118
root  -2.75628 40.9272 0.775735 174.391 -86.0669 -175.132
RightUpLeg  4.4503 -0.959086 -1.06036
RightLeg  -1.78168 -16.3435 0.211855
RightFoot  -0.636562 -0.263201 2.7345
RightToes  -3.13006e-008 1.75238e-005 3.56266e-009
Spine  -7.98274 -1.80939 -4.24076
Spine1  15.8828 -2.97787 4.39217
HEad  -19.8439 1.71044 1.36679
LeftShoulder1  2.69106 -4.95664 -25.6638
LeftArm  -19.4188 6.52934 -52.0766
LeftForeArm  164.448 -70.243 -152.299
LeftHand  -0.743222 -5.6008 8.16914
RightShoulder  3.07473 5.70845 27.3995
RightArm  -0.0871836 -25.2764 41.3464
RightForeArm  108.017 77.599 120.906
RightHand  -0.425022 7.17718 -4.27418
LeftUpLeg  4.40255 1.48634 2.32903
LeftLeg  -1.40546 15.6691 -0.655779
LeftFoot  -1.40672 0.249288 -2.85347
LeftToes  4.76866e-008 1.46233e-008 1.30548e-009
119
root  -2.75056 40.925 0.781748 173.896 -85.7619 -174.875
RightUpLeg  4.60082 -0.985346 -1.05167
RightLeg  -1.64225 -15.9772 0.180481
RightFoot  -0.668002 -0.267103 2.79563
RightToes  -3.13006e-008 1.75238e-005 3.56266e-009
Spine  -8.4429 -1.70794 -4.05728
Spine1  16.4877 -2.83296 4.17332
HEad  -19.0857 1.31617 2.22992
LeftShoulder1  2.67975 -5.01774 -25.2893
LeftArm  -18.4898 3.31274 -51.2403
LeftForeArm  159.03 -71.9478 -148.823
LeftHand  -0.639047 -5.83872 6.92302
RightShoulder  3.18754 6.00109 27.562
RightArm  -1.51362 -21.2381 40.888
RightForeArm  112.704 77.0787 124.93
RightHand  -0.391347 6.9843 -4.01788
LeftUpLeg  4.64244 1.53622 2.35878
LeftLeg  -1.29008 15.9039 -0.604066
LeftFoot  -1.49703 0.247789 -2.8442
LeftToes  4.76866e-008 1.46233e-008 1.30548e-009
120
root  -2.74767 40.9226 0.79169 174.377 -85.2236 -175.522
RightUpLeg  4.62699 -0.96554 -1.06766
RightLeg  -1.46786 -15.4442 0.072568
RightFoot  -0.692744 -0.267574 2.80295
RightToes  -3.13006e-008 1.75238e-005 3.56266e-009
Spine  -8.42338 -1.44882 -4.05001
Spine1  15.925 -2.52982 4.16601
HEad  -17.1456 1.09952 2.80355
LeftShoulder1  2.77529 -5.3457 -25.1997
LeftArm  -17.7641 0.221644 -50.2254
LeftForeArm  155.465 -73.1059 -146.076
LeftHand  -0.469311 -5.86072 5.16226
RightShoulder  3.22076 6.11908 27.4919
RightArm  -3.42794 -16.7654 40.5889
RightForeArm  116.716 76.475 128.638
RightHand  -0.410792 6.87977 -4.2278
LeftUpLeg  4.94403 1.5962 2.34699
LeftLeg  -1.40368 16.3804 -0.6755
LeftFoot  -1.51935 0.246104 -2.82724
LeftToes  4.76866e-008 1.46233e-008 1.30548e-009
121
root  -2.75834 40.9213 0.794483 173.907 -84.8026 -175.176
RightUpLeg  4.76325 -0.903242 -0.998934
RightLeg  -1.53375 -15.1101 0.0583315
RightFoot  -0.683603 -0.263613 2.741
RightToes  -3.13006e-008 1.75238e-005 3.56266e-009
Spine  -8.66728 -1.3773 -4.0185
Spine1  15.7501 -2.40687 4.04117
HEad  -15.3381 1.04444 3.10184
LeftShoulder1  2.82207 -5.51148 -25.1374
LeftArm  -17.2561 -3.08012 -49.7832
LeftForeArm  152.912 -73.675 -144.435
LeftHand  -0.349224 -5.6834 3.98598
RightShoulder  3.21713 6.15087 27.3389
RightArm  -5.52507 -11.2287 40.5689
RightForeArm  119.849 75.9714 131.37
RightHand  -0.509733 7.18285 -5.04918
LeftUpLeg  5.14459 1.68387 2.41397
LeftLeg  -1.38424 16.6968 -0.678507
LeftFoot  -1.59349 0.249484 -2.88794
LeftToes  4.76866e-008 1.46233e-008 1.30548e-009
